G04 (created by PCBNEW (2013-jul-07)-stable) date Mon 27 Jan 2014 06:07:48 NZDT*
%MOIN*%
G04 Gerber Fmt 3.4, Leading zero omitted, Abs format*
%FSLAX34Y34*%
G01*
G70*
G90*
G04 APERTURE LIST*
%ADD10C,0.00590551*%
%ADD11C,0.188976*%
%ADD12C,0.0590551*%
%ADD13C,0.06*%
%ADD14R,0.055X0.055*%
%ADD15C,0.055*%
%ADD16C,0.01*%
G04 APERTURE END LIST*
G54D10*
G54D11*
X23000Y-14500D03*
X27000Y-14500D03*
G54D12*
X25000Y-12500D03*
X26000Y-12500D03*
G54D13*
X26500Y-8500D03*
X27500Y-6500D03*
X25500Y-6500D03*
X23500Y-8500D03*
X24500Y-6500D03*
X22500Y-6500D03*
G54D14*
X23000Y-10250D03*
G54D15*
X24000Y-10250D03*
X25000Y-10250D03*
X26000Y-10250D03*
G54D14*
X27250Y-9750D03*
G54D15*
X27250Y-10750D03*
G54D16*
X26000Y-10250D02*
X26000Y-10000D01*
X26250Y-9750D02*
X27250Y-9750D01*
X26000Y-10000D02*
X26250Y-9750D01*
X25000Y-11750D02*
X26000Y-10750D01*
X26000Y-10750D02*
X27250Y-10750D01*
X25000Y-12500D02*
X25000Y-11750D01*
X24000Y-10750D02*
X24000Y-10250D01*
X25000Y-11750D02*
X24000Y-10750D01*
X23000Y-10250D02*
X24000Y-9250D01*
X25750Y-9250D02*
X26500Y-8500D01*
X24000Y-9250D02*
X25750Y-9250D01*
X23500Y-8500D02*
X23500Y-8000D01*
X26500Y-7500D02*
X27500Y-6500D01*
X24000Y-7500D02*
X26500Y-7500D01*
X23500Y-8000D02*
X24000Y-7500D01*
G54D10*
G36*
X27820Y-17620D02*
X22179Y-17620D01*
X22179Y-15226D01*
X22286Y-15337D01*
X22463Y-15460D01*
X22660Y-15546D01*
X22869Y-15592D01*
X23084Y-15596D01*
X23295Y-15559D01*
X23496Y-15482D01*
X23677Y-15366D01*
X23832Y-15218D01*
X23956Y-15043D01*
X24043Y-14847D01*
X24091Y-14637D01*
X24094Y-14392D01*
X24053Y-14182D01*
X23971Y-13983D01*
X23852Y-13804D01*
X23701Y-13652D01*
X23523Y-13532D01*
X23325Y-13449D01*
X23115Y-13405D01*
X22900Y-13404D01*
X22689Y-13444D01*
X22490Y-13525D01*
X22310Y-13642D01*
X22179Y-13770D01*
X22179Y-6815D01*
X22206Y-6844D01*
X22279Y-6894D01*
X22360Y-6930D01*
X22446Y-6948D01*
X22534Y-6950D01*
X22621Y-6935D01*
X22703Y-6903D01*
X22778Y-6856D01*
X22842Y-6795D01*
X22893Y-6723D01*
X22929Y-6642D01*
X22948Y-6556D01*
X22950Y-6455D01*
X22932Y-6369D01*
X22899Y-6287D01*
X22850Y-6214D01*
X22815Y-6179D01*
X24108Y-6179D01*
X24119Y-6190D01*
X24025Y-6216D01*
X23979Y-6314D01*
X23953Y-6419D01*
X23947Y-6526D01*
X23963Y-6633D01*
X23999Y-6735D01*
X24025Y-6783D01*
X24119Y-6809D01*
X24429Y-6500D01*
X24423Y-6494D01*
X24494Y-6423D01*
X24500Y-6429D01*
X24505Y-6423D01*
X24576Y-6494D01*
X24570Y-6500D01*
X24880Y-6809D01*
X24974Y-6783D01*
X25020Y-6685D01*
X25046Y-6580D01*
X25049Y-6521D01*
X25049Y-6537D01*
X25065Y-6624D01*
X25097Y-6706D01*
X25145Y-6780D01*
X25206Y-6844D01*
X25279Y-6894D01*
X25360Y-6930D01*
X25446Y-6948D01*
X25534Y-6950D01*
X25621Y-6935D01*
X25703Y-6903D01*
X25778Y-6856D01*
X25842Y-6795D01*
X25893Y-6723D01*
X25929Y-6642D01*
X25948Y-6556D01*
X25950Y-6455D01*
X25932Y-6369D01*
X25899Y-6287D01*
X25850Y-6214D01*
X25815Y-6179D01*
X27184Y-6179D01*
X27153Y-6209D01*
X27103Y-6282D01*
X27068Y-6363D01*
X27050Y-6449D01*
X27049Y-6537D01*
X27065Y-6624D01*
X27073Y-6644D01*
X26417Y-7300D01*
X24809Y-7300D01*
X24809Y-6880D01*
X24500Y-6570D01*
X24429Y-6641D01*
X24190Y-6880D01*
X24216Y-6974D01*
X24314Y-7020D01*
X24419Y-7046D01*
X24526Y-7052D01*
X24633Y-7036D01*
X24735Y-7000D01*
X24783Y-6974D01*
X24809Y-6880D01*
X24809Y-7300D01*
X24000Y-7300D01*
X23981Y-7301D01*
X23963Y-7303D01*
X23962Y-7303D01*
X23961Y-7303D01*
X23943Y-7309D01*
X23925Y-7314D01*
X23924Y-7314D01*
X23923Y-7315D01*
X23907Y-7323D01*
X23891Y-7332D01*
X23890Y-7332D01*
X23889Y-7333D01*
X23874Y-7345D01*
X23860Y-7356D01*
X23859Y-7358D01*
X23859Y-7358D01*
X23859Y-7358D01*
X23858Y-7358D01*
X23358Y-7858D01*
X23346Y-7872D01*
X23334Y-7887D01*
X23334Y-7887D01*
X23333Y-7888D01*
X23325Y-7905D01*
X23316Y-7921D01*
X23315Y-7922D01*
X23315Y-7923D01*
X23309Y-7940D01*
X23304Y-7958D01*
X23304Y-7959D01*
X23303Y-7960D01*
X23302Y-7978D01*
X23300Y-7997D01*
X23300Y-7999D01*
X23300Y-7999D01*
X23300Y-7999D01*
X23300Y-8000D01*
X23300Y-8095D01*
X23290Y-8099D01*
X23216Y-8147D01*
X23153Y-8209D01*
X23103Y-8282D01*
X23068Y-8363D01*
X23050Y-8449D01*
X23049Y-8537D01*
X23065Y-8624D01*
X23097Y-8706D01*
X23145Y-8780D01*
X23206Y-8844D01*
X23279Y-8894D01*
X23360Y-8930D01*
X23446Y-8948D01*
X23534Y-8950D01*
X23621Y-8935D01*
X23703Y-8903D01*
X23778Y-8856D01*
X23842Y-8795D01*
X23893Y-8723D01*
X23929Y-8642D01*
X23948Y-8556D01*
X23950Y-8455D01*
X23932Y-8369D01*
X23899Y-8287D01*
X23850Y-8214D01*
X23788Y-8151D01*
X23715Y-8102D01*
X23700Y-8095D01*
X23700Y-8082D01*
X24082Y-7700D01*
X26500Y-7700D01*
X26518Y-7698D01*
X26536Y-7696D01*
X26537Y-7696D01*
X26538Y-7696D01*
X26556Y-7690D01*
X26574Y-7685D01*
X26575Y-7685D01*
X26576Y-7684D01*
X26592Y-7676D01*
X26608Y-7667D01*
X26609Y-7667D01*
X26610Y-7666D01*
X26625Y-7654D01*
X26639Y-7643D01*
X26640Y-7641D01*
X26640Y-7641D01*
X26640Y-7641D01*
X26641Y-7641D01*
X27355Y-6927D01*
X27360Y-6930D01*
X27446Y-6948D01*
X27534Y-6950D01*
X27621Y-6935D01*
X27703Y-6903D01*
X27778Y-6856D01*
X27820Y-6816D01*
X27820Y-13772D01*
X27701Y-13652D01*
X27675Y-13634D01*
X27675Y-10011D01*
X27675Y-9460D01*
X27669Y-9431D01*
X27658Y-9404D01*
X27641Y-9379D01*
X27621Y-9358D01*
X27596Y-9342D01*
X27569Y-9331D01*
X27540Y-9325D01*
X27511Y-9324D01*
X26960Y-9324D01*
X26950Y-9327D01*
X26950Y-8455D01*
X26932Y-8369D01*
X26899Y-8287D01*
X26850Y-8214D01*
X26788Y-8151D01*
X26715Y-8102D01*
X26633Y-8068D01*
X26547Y-8050D01*
X26459Y-8049D01*
X26372Y-8066D01*
X26290Y-8099D01*
X26216Y-8147D01*
X26153Y-8209D01*
X26103Y-8282D01*
X26068Y-8363D01*
X26050Y-8449D01*
X26049Y-8537D01*
X26065Y-8624D01*
X26073Y-8644D01*
X25667Y-9050D01*
X24000Y-9050D01*
X23981Y-9051D01*
X23963Y-9053D01*
X23962Y-9053D01*
X23961Y-9053D01*
X23943Y-9059D01*
X23925Y-9064D01*
X23924Y-9064D01*
X23923Y-9065D01*
X23907Y-9073D01*
X23891Y-9082D01*
X23890Y-9082D01*
X23889Y-9083D01*
X23874Y-9095D01*
X23860Y-9106D01*
X23859Y-9108D01*
X23859Y-9108D01*
X23859Y-9108D01*
X23858Y-9108D01*
X23142Y-9824D01*
X22710Y-9824D01*
X22681Y-9830D01*
X22654Y-9841D01*
X22629Y-9858D01*
X22608Y-9878D01*
X22592Y-9903D01*
X22581Y-9930D01*
X22575Y-9959D01*
X22574Y-9988D01*
X22574Y-10539D01*
X22580Y-10568D01*
X22591Y-10595D01*
X22608Y-10620D01*
X22628Y-10641D01*
X22653Y-10657D01*
X22680Y-10668D01*
X22709Y-10674D01*
X22738Y-10675D01*
X23289Y-10675D01*
X23318Y-10669D01*
X23345Y-10658D01*
X23370Y-10641D01*
X23391Y-10621D01*
X23407Y-10596D01*
X23418Y-10569D01*
X23424Y-10540D01*
X23425Y-10511D01*
X23425Y-10107D01*
X24082Y-9450D01*
X25750Y-9450D01*
X25768Y-9448D01*
X25786Y-9446D01*
X25787Y-9446D01*
X25788Y-9446D01*
X25806Y-9440D01*
X25824Y-9435D01*
X25825Y-9435D01*
X25826Y-9434D01*
X25842Y-9426D01*
X25858Y-9417D01*
X25859Y-9417D01*
X25860Y-9416D01*
X25875Y-9404D01*
X25889Y-9393D01*
X25890Y-9391D01*
X25890Y-9391D01*
X25890Y-9391D01*
X25891Y-9391D01*
X26355Y-8927D01*
X26360Y-8930D01*
X26446Y-8948D01*
X26534Y-8950D01*
X26621Y-8935D01*
X26703Y-8903D01*
X26778Y-8856D01*
X26842Y-8795D01*
X26893Y-8723D01*
X26929Y-8642D01*
X26948Y-8556D01*
X26950Y-8455D01*
X26950Y-9327D01*
X26931Y-9330D01*
X26904Y-9341D01*
X26879Y-9358D01*
X26858Y-9378D01*
X26842Y-9403D01*
X26831Y-9430D01*
X26825Y-9459D01*
X26824Y-9488D01*
X26824Y-9550D01*
X26250Y-9550D01*
X26231Y-9551D01*
X26213Y-9553D01*
X26212Y-9553D01*
X26211Y-9553D01*
X26193Y-9559D01*
X26175Y-9564D01*
X26174Y-9564D01*
X26173Y-9565D01*
X26157Y-9573D01*
X26141Y-9582D01*
X26140Y-9582D01*
X26139Y-9583D01*
X26124Y-9595D01*
X26110Y-9606D01*
X26109Y-9608D01*
X26109Y-9608D01*
X26109Y-9608D01*
X26108Y-9608D01*
X25875Y-9842D01*
X25802Y-9871D01*
X25732Y-9917D01*
X25672Y-9975D01*
X25625Y-10044D01*
X25592Y-10120D01*
X25575Y-10202D01*
X25574Y-10285D01*
X25589Y-10367D01*
X25620Y-10445D01*
X25665Y-10515D01*
X25723Y-10575D01*
X25791Y-10622D01*
X25828Y-10638D01*
X25526Y-10940D01*
X25526Y-10222D01*
X25511Y-10120D01*
X25476Y-10023D01*
X25454Y-9981D01*
X25362Y-9958D01*
X25291Y-10029D01*
X25291Y-9887D01*
X25268Y-9795D01*
X25174Y-9752D01*
X25074Y-9727D01*
X24972Y-9723D01*
X24870Y-9738D01*
X24773Y-9773D01*
X24731Y-9795D01*
X24708Y-9887D01*
X25000Y-10179D01*
X25291Y-9887D01*
X25291Y-10029D01*
X25070Y-10250D01*
X25362Y-10541D01*
X25454Y-10518D01*
X25497Y-10424D01*
X25522Y-10324D01*
X25526Y-10222D01*
X25526Y-10940D01*
X25291Y-11175D01*
X25291Y-10612D01*
X25000Y-10320D01*
X24929Y-10391D01*
X24929Y-10250D01*
X24637Y-9958D01*
X24545Y-9981D01*
X24502Y-10075D01*
X24477Y-10175D01*
X24473Y-10277D01*
X24488Y-10379D01*
X24523Y-10476D01*
X24545Y-10518D01*
X24637Y-10541D01*
X24929Y-10250D01*
X24929Y-10391D01*
X24708Y-10612D01*
X24731Y-10704D01*
X24825Y-10747D01*
X24925Y-10772D01*
X25027Y-10776D01*
X25129Y-10761D01*
X25226Y-10726D01*
X25268Y-10704D01*
X25291Y-10612D01*
X25291Y-11175D01*
X25000Y-11467D01*
X24200Y-10667D01*
X24200Y-10626D01*
X24262Y-10586D01*
X24323Y-10529D01*
X24371Y-10460D01*
X24405Y-10384D01*
X24423Y-10303D01*
X24425Y-10208D01*
X24408Y-10126D01*
X24377Y-10049D01*
X24330Y-9980D01*
X24272Y-9920D01*
X24203Y-9874D01*
X24126Y-9842D01*
X24044Y-9825D01*
X23961Y-9824D01*
X23879Y-9840D01*
X23802Y-9871D01*
X23732Y-9917D01*
X23672Y-9975D01*
X23625Y-10044D01*
X23592Y-10120D01*
X23575Y-10202D01*
X23574Y-10285D01*
X23589Y-10367D01*
X23620Y-10445D01*
X23665Y-10515D01*
X23723Y-10575D01*
X23791Y-10622D01*
X23800Y-10626D01*
X23800Y-10750D01*
X23801Y-10768D01*
X23803Y-10786D01*
X23803Y-10787D01*
X23803Y-10788D01*
X23809Y-10806D01*
X23814Y-10824D01*
X23814Y-10825D01*
X23815Y-10826D01*
X23823Y-10842D01*
X23832Y-10858D01*
X23832Y-10859D01*
X23833Y-10860D01*
X23845Y-10875D01*
X23856Y-10889D01*
X23858Y-10890D01*
X23858Y-10890D01*
X23858Y-10890D01*
X23858Y-10891D01*
X24800Y-11832D01*
X24800Y-12100D01*
X24792Y-12103D01*
X24719Y-12151D01*
X24657Y-12212D01*
X24607Y-12284D01*
X24573Y-12364D01*
X24555Y-12450D01*
X24554Y-12537D01*
X24569Y-12623D01*
X24602Y-12704D01*
X24649Y-12777D01*
X24710Y-12840D01*
X24781Y-12890D01*
X24861Y-12925D01*
X24947Y-12944D01*
X25034Y-12946D01*
X25120Y-12930D01*
X25201Y-12899D01*
X25275Y-12852D01*
X25338Y-12792D01*
X25389Y-12721D01*
X25424Y-12641D01*
X25443Y-12556D01*
X25445Y-12456D01*
X25428Y-12370D01*
X25395Y-12289D01*
X25346Y-12217D01*
X25285Y-12155D01*
X25212Y-12106D01*
X25200Y-12101D01*
X25200Y-11832D01*
X26082Y-10950D01*
X26873Y-10950D01*
X26915Y-11015D01*
X26973Y-11075D01*
X27041Y-11122D01*
X27118Y-11156D01*
X27199Y-11174D01*
X27282Y-11175D01*
X27364Y-11161D01*
X27442Y-11131D01*
X27512Y-11086D01*
X27573Y-11029D01*
X27621Y-10960D01*
X27655Y-10884D01*
X27673Y-10803D01*
X27675Y-10708D01*
X27658Y-10626D01*
X27627Y-10549D01*
X27580Y-10480D01*
X27522Y-10420D01*
X27453Y-10374D01*
X27376Y-10342D01*
X27294Y-10325D01*
X27211Y-10324D01*
X27129Y-10340D01*
X27052Y-10371D01*
X26982Y-10417D01*
X26922Y-10475D01*
X26875Y-10544D01*
X26873Y-10550D01*
X26301Y-10550D01*
X26323Y-10529D01*
X26371Y-10460D01*
X26405Y-10384D01*
X26423Y-10303D01*
X26425Y-10208D01*
X26408Y-10126D01*
X26377Y-10049D01*
X26330Y-9980D01*
X26316Y-9965D01*
X26332Y-9950D01*
X26824Y-9950D01*
X26824Y-10039D01*
X26830Y-10068D01*
X26841Y-10095D01*
X26858Y-10120D01*
X26878Y-10141D01*
X26903Y-10157D01*
X26930Y-10168D01*
X26959Y-10174D01*
X26988Y-10175D01*
X27539Y-10175D01*
X27568Y-10169D01*
X27595Y-10158D01*
X27620Y-10141D01*
X27641Y-10121D01*
X27657Y-10096D01*
X27668Y-10069D01*
X27674Y-10040D01*
X27675Y-10011D01*
X27675Y-13634D01*
X27523Y-13532D01*
X27325Y-13449D01*
X27115Y-13405D01*
X26900Y-13404D01*
X26689Y-13444D01*
X26547Y-13502D01*
X26547Y-12472D01*
X26531Y-12367D01*
X26495Y-12266D01*
X26470Y-12219D01*
X26376Y-12193D01*
X26306Y-12264D01*
X26306Y-12123D01*
X26280Y-12029D01*
X26183Y-11983D01*
X26079Y-11957D01*
X25972Y-11952D01*
X25867Y-11968D01*
X25766Y-12004D01*
X25719Y-12029D01*
X25693Y-12123D01*
X26000Y-12429D01*
X26306Y-12123D01*
X26306Y-12264D01*
X26070Y-12500D01*
X26376Y-12806D01*
X26470Y-12780D01*
X26516Y-12683D01*
X26542Y-12579D01*
X26547Y-12472D01*
X26547Y-13502D01*
X26490Y-13525D01*
X26310Y-13642D01*
X26306Y-13647D01*
X26306Y-12876D01*
X26000Y-12570D01*
X25929Y-12641D01*
X25929Y-12500D01*
X25623Y-12193D01*
X25529Y-12219D01*
X25483Y-12316D01*
X25457Y-12420D01*
X25452Y-12527D01*
X25468Y-12632D01*
X25504Y-12733D01*
X25529Y-12780D01*
X25623Y-12806D01*
X25929Y-12500D01*
X25929Y-12641D01*
X25693Y-12876D01*
X25719Y-12970D01*
X25816Y-13016D01*
X25920Y-13042D01*
X26027Y-13047D01*
X26132Y-13031D01*
X26233Y-12995D01*
X26280Y-12970D01*
X26306Y-12876D01*
X26306Y-13647D01*
X26157Y-13792D01*
X26035Y-13969D01*
X25951Y-14167D01*
X25906Y-14377D01*
X25903Y-14592D01*
X25942Y-14803D01*
X26021Y-15002D01*
X26137Y-15183D01*
X26286Y-15337D01*
X26463Y-15460D01*
X26660Y-15546D01*
X26869Y-15592D01*
X27084Y-15596D01*
X27295Y-15559D01*
X27496Y-15482D01*
X27677Y-15366D01*
X27820Y-15230D01*
X27820Y-17620D01*
X27820Y-17620D01*
G37*
G54D16*
X27820Y-17620D02*
X22179Y-17620D01*
X22179Y-15226D01*
X22286Y-15337D01*
X22463Y-15460D01*
X22660Y-15546D01*
X22869Y-15592D01*
X23084Y-15596D01*
X23295Y-15559D01*
X23496Y-15482D01*
X23677Y-15366D01*
X23832Y-15218D01*
X23956Y-15043D01*
X24043Y-14847D01*
X24091Y-14637D01*
X24094Y-14392D01*
X24053Y-14182D01*
X23971Y-13983D01*
X23852Y-13804D01*
X23701Y-13652D01*
X23523Y-13532D01*
X23325Y-13449D01*
X23115Y-13405D01*
X22900Y-13404D01*
X22689Y-13444D01*
X22490Y-13525D01*
X22310Y-13642D01*
X22179Y-13770D01*
X22179Y-6815D01*
X22206Y-6844D01*
X22279Y-6894D01*
X22360Y-6930D01*
X22446Y-6948D01*
X22534Y-6950D01*
X22621Y-6935D01*
X22703Y-6903D01*
X22778Y-6856D01*
X22842Y-6795D01*
X22893Y-6723D01*
X22929Y-6642D01*
X22948Y-6556D01*
X22950Y-6455D01*
X22932Y-6369D01*
X22899Y-6287D01*
X22850Y-6214D01*
X22815Y-6179D01*
X24108Y-6179D01*
X24119Y-6190D01*
X24025Y-6216D01*
X23979Y-6314D01*
X23953Y-6419D01*
X23947Y-6526D01*
X23963Y-6633D01*
X23999Y-6735D01*
X24025Y-6783D01*
X24119Y-6809D01*
X24429Y-6500D01*
X24423Y-6494D01*
X24494Y-6423D01*
X24500Y-6429D01*
X24505Y-6423D01*
X24576Y-6494D01*
X24570Y-6500D01*
X24880Y-6809D01*
X24974Y-6783D01*
X25020Y-6685D01*
X25046Y-6580D01*
X25049Y-6521D01*
X25049Y-6537D01*
X25065Y-6624D01*
X25097Y-6706D01*
X25145Y-6780D01*
X25206Y-6844D01*
X25279Y-6894D01*
X25360Y-6930D01*
X25446Y-6948D01*
X25534Y-6950D01*
X25621Y-6935D01*
X25703Y-6903D01*
X25778Y-6856D01*
X25842Y-6795D01*
X25893Y-6723D01*
X25929Y-6642D01*
X25948Y-6556D01*
X25950Y-6455D01*
X25932Y-6369D01*
X25899Y-6287D01*
X25850Y-6214D01*
X25815Y-6179D01*
X27184Y-6179D01*
X27153Y-6209D01*
X27103Y-6282D01*
X27068Y-6363D01*
X27050Y-6449D01*
X27049Y-6537D01*
X27065Y-6624D01*
X27073Y-6644D01*
X26417Y-7300D01*
X24809Y-7300D01*
X24809Y-6880D01*
X24500Y-6570D01*
X24429Y-6641D01*
X24190Y-6880D01*
X24216Y-6974D01*
X24314Y-7020D01*
X24419Y-7046D01*
X24526Y-7052D01*
X24633Y-7036D01*
X24735Y-7000D01*
X24783Y-6974D01*
X24809Y-6880D01*
X24809Y-7300D01*
X24000Y-7300D01*
X23981Y-7301D01*
X23963Y-7303D01*
X23962Y-7303D01*
X23961Y-7303D01*
X23943Y-7309D01*
X23925Y-7314D01*
X23924Y-7314D01*
X23923Y-7315D01*
X23907Y-7323D01*
X23891Y-7332D01*
X23890Y-7332D01*
X23889Y-7333D01*
X23874Y-7345D01*
X23860Y-7356D01*
X23859Y-7358D01*
X23859Y-7358D01*
X23859Y-7358D01*
X23858Y-7358D01*
X23358Y-7858D01*
X23346Y-7872D01*
X23334Y-7887D01*
X23334Y-7887D01*
X23333Y-7888D01*
X23325Y-7905D01*
X23316Y-7921D01*
X23315Y-7922D01*
X23315Y-7923D01*
X23309Y-7940D01*
X23304Y-7958D01*
X23304Y-7959D01*
X23303Y-7960D01*
X23302Y-7978D01*
X23300Y-7997D01*
X23300Y-7999D01*
X23300Y-7999D01*
X23300Y-7999D01*
X23300Y-8000D01*
X23300Y-8095D01*
X23290Y-8099D01*
X23216Y-8147D01*
X23153Y-8209D01*
X23103Y-8282D01*
X23068Y-8363D01*
X23050Y-8449D01*
X23049Y-8537D01*
X23065Y-8624D01*
X23097Y-8706D01*
X23145Y-8780D01*
X23206Y-8844D01*
X23279Y-8894D01*
X23360Y-8930D01*
X23446Y-8948D01*
X23534Y-8950D01*
X23621Y-8935D01*
X23703Y-8903D01*
X23778Y-8856D01*
X23842Y-8795D01*
X23893Y-8723D01*
X23929Y-8642D01*
X23948Y-8556D01*
X23950Y-8455D01*
X23932Y-8369D01*
X23899Y-8287D01*
X23850Y-8214D01*
X23788Y-8151D01*
X23715Y-8102D01*
X23700Y-8095D01*
X23700Y-8082D01*
X24082Y-7700D01*
X26500Y-7700D01*
X26518Y-7698D01*
X26536Y-7696D01*
X26537Y-7696D01*
X26538Y-7696D01*
X26556Y-7690D01*
X26574Y-7685D01*
X26575Y-7685D01*
X26576Y-7684D01*
X26592Y-7676D01*
X26608Y-7667D01*
X26609Y-7667D01*
X26610Y-7666D01*
X26625Y-7654D01*
X26639Y-7643D01*
X26640Y-7641D01*
X26640Y-7641D01*
X26640Y-7641D01*
X26641Y-7641D01*
X27355Y-6927D01*
X27360Y-6930D01*
X27446Y-6948D01*
X27534Y-6950D01*
X27621Y-6935D01*
X27703Y-6903D01*
X27778Y-6856D01*
X27820Y-6816D01*
X27820Y-13772D01*
X27701Y-13652D01*
X27675Y-13634D01*
X27675Y-10011D01*
X27675Y-9460D01*
X27669Y-9431D01*
X27658Y-9404D01*
X27641Y-9379D01*
X27621Y-9358D01*
X27596Y-9342D01*
X27569Y-9331D01*
X27540Y-9325D01*
X27511Y-9324D01*
X26960Y-9324D01*
X26950Y-9327D01*
X26950Y-8455D01*
X26932Y-8369D01*
X26899Y-8287D01*
X26850Y-8214D01*
X26788Y-8151D01*
X26715Y-8102D01*
X26633Y-8068D01*
X26547Y-8050D01*
X26459Y-8049D01*
X26372Y-8066D01*
X26290Y-8099D01*
X26216Y-8147D01*
X26153Y-8209D01*
X26103Y-8282D01*
X26068Y-8363D01*
X26050Y-8449D01*
X26049Y-8537D01*
X26065Y-8624D01*
X26073Y-8644D01*
X25667Y-9050D01*
X24000Y-9050D01*
X23981Y-9051D01*
X23963Y-9053D01*
X23962Y-9053D01*
X23961Y-9053D01*
X23943Y-9059D01*
X23925Y-9064D01*
X23924Y-9064D01*
X23923Y-9065D01*
X23907Y-9073D01*
X23891Y-9082D01*
X23890Y-9082D01*
X23889Y-9083D01*
X23874Y-9095D01*
X23860Y-9106D01*
X23859Y-9108D01*
X23859Y-9108D01*
X23859Y-9108D01*
X23858Y-9108D01*
X23142Y-9824D01*
X22710Y-9824D01*
X22681Y-9830D01*
X22654Y-9841D01*
X22629Y-9858D01*
X22608Y-9878D01*
X22592Y-9903D01*
X22581Y-9930D01*
X22575Y-9959D01*
X22574Y-9988D01*
X22574Y-10539D01*
X22580Y-10568D01*
X22591Y-10595D01*
X22608Y-10620D01*
X22628Y-10641D01*
X22653Y-10657D01*
X22680Y-10668D01*
X22709Y-10674D01*
X22738Y-10675D01*
X23289Y-10675D01*
X23318Y-10669D01*
X23345Y-10658D01*
X23370Y-10641D01*
X23391Y-10621D01*
X23407Y-10596D01*
X23418Y-10569D01*
X23424Y-10540D01*
X23425Y-10511D01*
X23425Y-10107D01*
X24082Y-9450D01*
X25750Y-9450D01*
X25768Y-9448D01*
X25786Y-9446D01*
X25787Y-9446D01*
X25788Y-9446D01*
X25806Y-9440D01*
X25824Y-9435D01*
X25825Y-9435D01*
X25826Y-9434D01*
X25842Y-9426D01*
X25858Y-9417D01*
X25859Y-9417D01*
X25860Y-9416D01*
X25875Y-9404D01*
X25889Y-9393D01*
X25890Y-9391D01*
X25890Y-9391D01*
X25890Y-9391D01*
X25891Y-9391D01*
X26355Y-8927D01*
X26360Y-8930D01*
X26446Y-8948D01*
X26534Y-8950D01*
X26621Y-8935D01*
X26703Y-8903D01*
X26778Y-8856D01*
X26842Y-8795D01*
X26893Y-8723D01*
X26929Y-8642D01*
X26948Y-8556D01*
X26950Y-8455D01*
X26950Y-9327D01*
X26931Y-9330D01*
X26904Y-9341D01*
X26879Y-9358D01*
X26858Y-9378D01*
X26842Y-9403D01*
X26831Y-9430D01*
X26825Y-9459D01*
X26824Y-9488D01*
X26824Y-9550D01*
X26250Y-9550D01*
X26231Y-9551D01*
X26213Y-9553D01*
X26212Y-9553D01*
X26211Y-9553D01*
X26193Y-9559D01*
X26175Y-9564D01*
X26174Y-9564D01*
X26173Y-9565D01*
X26157Y-9573D01*
X26141Y-9582D01*
X26140Y-9582D01*
X26139Y-9583D01*
X26124Y-9595D01*
X26110Y-9606D01*
X26109Y-9608D01*
X26109Y-9608D01*
X26109Y-9608D01*
X26108Y-9608D01*
X25875Y-9842D01*
X25802Y-9871D01*
X25732Y-9917D01*
X25672Y-9975D01*
X25625Y-10044D01*
X25592Y-10120D01*
X25575Y-10202D01*
X25574Y-10285D01*
X25589Y-10367D01*
X25620Y-10445D01*
X25665Y-10515D01*
X25723Y-10575D01*
X25791Y-10622D01*
X25828Y-10638D01*
X25526Y-10940D01*
X25526Y-10222D01*
X25511Y-10120D01*
X25476Y-10023D01*
X25454Y-9981D01*
X25362Y-9958D01*
X25291Y-10029D01*
X25291Y-9887D01*
X25268Y-9795D01*
X25174Y-9752D01*
X25074Y-9727D01*
X24972Y-9723D01*
X24870Y-9738D01*
X24773Y-9773D01*
X24731Y-9795D01*
X24708Y-9887D01*
X25000Y-10179D01*
X25291Y-9887D01*
X25291Y-10029D01*
X25070Y-10250D01*
X25362Y-10541D01*
X25454Y-10518D01*
X25497Y-10424D01*
X25522Y-10324D01*
X25526Y-10222D01*
X25526Y-10940D01*
X25291Y-11175D01*
X25291Y-10612D01*
X25000Y-10320D01*
X24929Y-10391D01*
X24929Y-10250D01*
X24637Y-9958D01*
X24545Y-9981D01*
X24502Y-10075D01*
X24477Y-10175D01*
X24473Y-10277D01*
X24488Y-10379D01*
X24523Y-10476D01*
X24545Y-10518D01*
X24637Y-10541D01*
X24929Y-10250D01*
X24929Y-10391D01*
X24708Y-10612D01*
X24731Y-10704D01*
X24825Y-10747D01*
X24925Y-10772D01*
X25027Y-10776D01*
X25129Y-10761D01*
X25226Y-10726D01*
X25268Y-10704D01*
X25291Y-10612D01*
X25291Y-11175D01*
X25000Y-11467D01*
X24200Y-10667D01*
X24200Y-10626D01*
X24262Y-10586D01*
X24323Y-10529D01*
X24371Y-10460D01*
X24405Y-10384D01*
X24423Y-10303D01*
X24425Y-10208D01*
X24408Y-10126D01*
X24377Y-10049D01*
X24330Y-9980D01*
X24272Y-9920D01*
X24203Y-9874D01*
X24126Y-9842D01*
X24044Y-9825D01*
X23961Y-9824D01*
X23879Y-9840D01*
X23802Y-9871D01*
X23732Y-9917D01*
X23672Y-9975D01*
X23625Y-10044D01*
X23592Y-10120D01*
X23575Y-10202D01*
X23574Y-10285D01*
X23589Y-10367D01*
X23620Y-10445D01*
X23665Y-10515D01*
X23723Y-10575D01*
X23791Y-10622D01*
X23800Y-10626D01*
X23800Y-10750D01*
X23801Y-10768D01*
X23803Y-10786D01*
X23803Y-10787D01*
X23803Y-10788D01*
X23809Y-10806D01*
X23814Y-10824D01*
X23814Y-10825D01*
X23815Y-10826D01*
X23823Y-10842D01*
X23832Y-10858D01*
X23832Y-10859D01*
X23833Y-10860D01*
X23845Y-10875D01*
X23856Y-10889D01*
X23858Y-10890D01*
X23858Y-10890D01*
X23858Y-10890D01*
X23858Y-10891D01*
X24800Y-11832D01*
X24800Y-12100D01*
X24792Y-12103D01*
X24719Y-12151D01*
X24657Y-12212D01*
X24607Y-12284D01*
X24573Y-12364D01*
X24555Y-12450D01*
X24554Y-12537D01*
X24569Y-12623D01*
X24602Y-12704D01*
X24649Y-12777D01*
X24710Y-12840D01*
X24781Y-12890D01*
X24861Y-12925D01*
X24947Y-12944D01*
X25034Y-12946D01*
X25120Y-12930D01*
X25201Y-12899D01*
X25275Y-12852D01*
X25338Y-12792D01*
X25389Y-12721D01*
X25424Y-12641D01*
X25443Y-12556D01*
X25445Y-12456D01*
X25428Y-12370D01*
X25395Y-12289D01*
X25346Y-12217D01*
X25285Y-12155D01*
X25212Y-12106D01*
X25200Y-12101D01*
X25200Y-11832D01*
X26082Y-10950D01*
X26873Y-10950D01*
X26915Y-11015D01*
X26973Y-11075D01*
X27041Y-11122D01*
X27118Y-11156D01*
X27199Y-11174D01*
X27282Y-11175D01*
X27364Y-11161D01*
X27442Y-11131D01*
X27512Y-11086D01*
X27573Y-11029D01*
X27621Y-10960D01*
X27655Y-10884D01*
X27673Y-10803D01*
X27675Y-10708D01*
X27658Y-10626D01*
X27627Y-10549D01*
X27580Y-10480D01*
X27522Y-10420D01*
X27453Y-10374D01*
X27376Y-10342D01*
X27294Y-10325D01*
X27211Y-10324D01*
X27129Y-10340D01*
X27052Y-10371D01*
X26982Y-10417D01*
X26922Y-10475D01*
X26875Y-10544D01*
X26873Y-10550D01*
X26301Y-10550D01*
X26323Y-10529D01*
X26371Y-10460D01*
X26405Y-10384D01*
X26423Y-10303D01*
X26425Y-10208D01*
X26408Y-10126D01*
X26377Y-10049D01*
X26330Y-9980D01*
X26316Y-9965D01*
X26332Y-9950D01*
X26824Y-9950D01*
X26824Y-10039D01*
X26830Y-10068D01*
X26841Y-10095D01*
X26858Y-10120D01*
X26878Y-10141D01*
X26903Y-10157D01*
X26930Y-10168D01*
X26959Y-10174D01*
X26988Y-10175D01*
X27539Y-10175D01*
X27568Y-10169D01*
X27595Y-10158D01*
X27620Y-10141D01*
X27641Y-10121D01*
X27657Y-10096D01*
X27668Y-10069D01*
X27674Y-10040D01*
X27675Y-10011D01*
X27675Y-13634D01*
X27523Y-13532D01*
X27325Y-13449D01*
X27115Y-13405D01*
X26900Y-13404D01*
X26689Y-13444D01*
X26547Y-13502D01*
X26547Y-12472D01*
X26531Y-12367D01*
X26495Y-12266D01*
X26470Y-12219D01*
X26376Y-12193D01*
X26306Y-12264D01*
X26306Y-12123D01*
X26280Y-12029D01*
X26183Y-11983D01*
X26079Y-11957D01*
X25972Y-11952D01*
X25867Y-11968D01*
X25766Y-12004D01*
X25719Y-12029D01*
X25693Y-12123D01*
X26000Y-12429D01*
X26306Y-12123D01*
X26306Y-12264D01*
X26070Y-12500D01*
X26376Y-12806D01*
X26470Y-12780D01*
X26516Y-12683D01*
X26542Y-12579D01*
X26547Y-12472D01*
X26547Y-13502D01*
X26490Y-13525D01*
X26310Y-13642D01*
X26306Y-13647D01*
X26306Y-12876D01*
X26000Y-12570D01*
X25929Y-12641D01*
X25929Y-12500D01*
X25623Y-12193D01*
X25529Y-12219D01*
X25483Y-12316D01*
X25457Y-12420D01*
X25452Y-12527D01*
X25468Y-12632D01*
X25504Y-12733D01*
X25529Y-12780D01*
X25623Y-12806D01*
X25929Y-12500D01*
X25929Y-12641D01*
X25693Y-12876D01*
X25719Y-12970D01*
X25816Y-13016D01*
X25920Y-13042D01*
X26027Y-13047D01*
X26132Y-13031D01*
X26233Y-12995D01*
X26280Y-12970D01*
X26306Y-12876D01*
X26306Y-13647D01*
X26157Y-13792D01*
X26035Y-13969D01*
X25951Y-14167D01*
X25906Y-14377D01*
X25903Y-14592D01*
X25942Y-14803D01*
X26021Y-15002D01*
X26137Y-15183D01*
X26286Y-15337D01*
X26463Y-15460D01*
X26660Y-15546D01*
X26869Y-15592D01*
X27084Y-15596D01*
X27295Y-15559D01*
X27496Y-15482D01*
X27677Y-15366D01*
X27820Y-15230D01*
X27820Y-17620D01*
M02*
