G04 (created by PCBNEW (2013-jul-07)-stable) date Mon 27 Jan 2014 06:07:48 NZDT*
%MOIN*%
G04 Gerber Fmt 3.4, Leading zero omitted, Abs format*
%FSLAX34Y34*%
G01*
G70*
G90*
G04 APERTURE LIST*
%ADD10C,0.00590551*%
%ADD11C,0.00984252*%
%ADD12C,0.188976*%
%ADD13C,0.0590551*%
%ADD14C,0.06*%
%ADD15R,0.055X0.055*%
%ADD16C,0.055*%
G04 APERTURE END LIST*
G54D10*
G54D11*
X27594Y-16617D02*
X27294Y-16617D01*
X27654Y-16898D02*
X27444Y-15914D01*
X27234Y-16898D01*
X26754Y-16898D02*
X26754Y-16382D01*
X26784Y-16289D01*
X26844Y-16242D01*
X26964Y-16242D01*
X27024Y-16289D01*
X26754Y-16851D02*
X26814Y-16898D01*
X26964Y-16898D01*
X27024Y-16851D01*
X27054Y-16757D01*
X27054Y-16664D01*
X27024Y-16570D01*
X26964Y-16523D01*
X26814Y-16523D01*
X26754Y-16476D01*
X26454Y-16898D02*
X26454Y-16242D01*
X26454Y-16429D02*
X26424Y-16335D01*
X26394Y-16289D01*
X26334Y-16242D01*
X26274Y-16242D01*
X25974Y-16898D02*
X26034Y-16851D01*
X26064Y-16804D01*
X26094Y-16710D01*
X26094Y-16429D01*
X26064Y-16335D01*
X26034Y-16289D01*
X25974Y-16242D01*
X25884Y-16242D01*
X25824Y-16289D01*
X25794Y-16335D01*
X25764Y-16429D01*
X25764Y-16710D01*
X25794Y-16804D01*
X25824Y-16851D01*
X25884Y-16898D01*
X25974Y-16898D01*
X25494Y-16242D02*
X25494Y-16898D01*
X25494Y-16335D02*
X25464Y-16289D01*
X25404Y-16242D01*
X25314Y-16242D01*
X25254Y-16289D01*
X25224Y-16382D01*
X25224Y-16898D01*
X24445Y-16898D02*
X24445Y-15914D01*
X24205Y-15914D01*
X24145Y-15961D01*
X24115Y-16007D01*
X24085Y-16101D01*
X24085Y-16242D01*
X24115Y-16335D01*
X24145Y-16382D01*
X24205Y-16429D01*
X24445Y-16429D01*
X23575Y-16851D02*
X23635Y-16898D01*
X23755Y-16898D01*
X23815Y-16851D01*
X23845Y-16757D01*
X23845Y-16382D01*
X23815Y-16289D01*
X23755Y-16242D01*
X23635Y-16242D01*
X23575Y-16289D01*
X23545Y-16382D01*
X23545Y-16476D01*
X23845Y-16570D01*
X23185Y-16898D02*
X23245Y-16851D01*
X23275Y-16757D01*
X23275Y-15914D01*
X22855Y-16898D02*
X22915Y-16851D01*
X22945Y-16757D01*
X22945Y-15914D01*
X22675Y-16242D02*
X22525Y-16898D01*
X22375Y-16242D02*
X22525Y-16898D01*
X22585Y-17132D01*
X22615Y-17179D01*
X22675Y-17226D01*
G54D12*
X23000Y-14500D03*
X27000Y-14500D03*
G54D13*
X25000Y-12500D03*
X26000Y-12500D03*
G54D14*
X26500Y-8500D03*
X27500Y-6500D03*
X25500Y-6500D03*
X23500Y-8500D03*
X24500Y-6500D03*
X22500Y-6500D03*
G54D15*
X23000Y-10250D03*
G54D16*
X24000Y-10250D03*
X25000Y-10250D03*
X26000Y-10250D03*
G54D15*
X27250Y-9750D03*
G54D16*
X27250Y-10750D03*
M02*
